<svg width="213" height="143" viewBox="0 0 213 143" fill="none" xmlns="http://www.w3.org/2000/svg">
<path d="M155.049 94.2675C155.056 100.421 153.492 106.507 150.46 112.137C147.427 117.766 142.992 122.815 137.438 126.959C135.894 128.112 134.27 129.193 132.574 130.195C130.398 131.481 128.108 132.631 125.722 133.636H125.697C125.188 133.855 124.671 134.063 124.15 134.264C123.913 134.36 123.679 134.449 123.437 134.537C121.929 135.104 120.381 135.613 118.794 136.063C117.544 136.405 116.26 136.746 114.963 137.026C107.486 138.655 99.6697 138.957 92.0384 137.91C91.1339 137.787 90.2419 137.647 89.3541 137.487L88.6038 137.347C86.339 136.914 84.1112 136.359 81.9347 135.688C80.6704 135.299 79.431 134.872 78.2167 134.408C77.7457 134.227 77.2747 134.042 76.812 133.851C76.4952 133.721 76.1826 133.588 75.87 133.455C67.3889 129.807 60.244 124.379 55.1668 117.725C50.0896 111.072 47.2626 103.433 46.9754 95.5911C46.6881 87.7487 48.9508 79.9848 53.5319 73.0942C58.1129 66.2037 64.8476 60.4341 73.0464 56.3763C81.2452 52.3185 90.6135 50.1183 100.192 50.001C109.77 49.8837 119.215 51.8535 127.558 55.7087C135.901 59.5639 142.844 65.166 147.674 71.9413C152.505 78.7166 155.05 86.4217 155.049 94.2675Z" fill="url(#paint0_linear_1_648)"/>
<path d="M115.163 97.4697C118.606 100.372 128.635 111.665 128.635 111.665L122.475 119.062L116.935 104.366L115.163 97.4697Z" fill="url(#paint1_linear_1_648)"/>
<path d="M125.697 133.66C125.188 133.878 124.671 134.087 124.15 134.288C123.913 134.384 123.679 134.472 123.437 134.561C121.928 135.128 120.381 135.637 118.794 136.087C117.544 136.429 116.26 136.77 114.963 137.05C107.486 138.679 99.6697 138.98 92.0384 137.934C91.1339 137.811 90.2419 137.671 89.354 137.511C86.1029 139.347 83.1017 140.901 81.1135 141.607L81.2761 140.471L81.9513 135.715L83.5144 124.651L89.7083 119.745L75.7824 120.629C75.7824 120.629 77.2454 104.004 82.9559 100.583C88.6663 97.1625 94.656 94.0968 94.656 94.0968C95.3706 94.4828 96.1577 94.7699 96.986 94.9469V94.9469C98.9666 95.3953 101.025 95.5672 103.076 95.4555C105.518 95.3634 107.961 93.5028 108.078 93.4072C108.078 93.4072 111.912 94.032 115.163 97.4834C116.785 99.26 117.949 101.288 118.586 103.444C119.386 105.967 120.807 111.859 122.424 118.977C123.483 123.558 124.596 128.638 125.697 133.66Z" fill="url(#paint2_linear_1_648)"/>
<path d="M128.635 111.678L134.579 117.383L155.482 100.389L156.274 96.9099L160.443 93.9432L158.588 98.4666V104.359C158.588 104.359 142.465 125.764 138.022 126.866C132.824 128.16 122.483 119.056 122.483 119.056L128.635 111.678Z" fill="url(#paint3_linear_1_648)"/>
<path d="M106.935 119.479L111.783 129.038L118.048 126.832L113.455 117.478L106.935 119.479Z" fill="#7E57C2"/>
<path d="M113.688 125.655C112.909 126.18 111.746 126.057 110.303 126.119C108.366 126.161 106.507 126.757 105.051 127.805C103.113 129.14 97.6946 132.632 92.276 135.821C91.2923 136.398 90.3086 136.968 89.3582 137.528C86.107 139.365 83.1059 140.918 81.1177 141.625C80.595 141.837 80.0306 141.972 79.4504 142.024C76.6661 142.082 76.07 137.303 75.8991 133.489C75.845 132.223 75.8325 131.065 75.8033 130.229C75.6866 126.884 75.8033 120.67 75.8033 120.67L89.7292 119.783L88.2537 127.682L87.9952 129.079V129.089L92.1634 127.826L92.2926 127.788L107.09 123.285L108.111 121.841L108.761 123.207H108.824L115.159 122.524C115.159 122.524 115.268 124.593 113.688 125.655Z" fill="url(#paint4_linear_1_648)"/>
<path d="M110.491 75.8328C110.128 75.0203 109.816 74.4672 109.724 74.3034V74.2624C109.724 74.2624 109.403 74.911 106.985 74.754C104.568 74.597 103.768 73.6138 103.768 73.6138C103.768 73.6138 104.526 75.744 101.646 76.6555C98.8742 77.5363 97.7821 76.9662 97.7071 76.9252C97.853 77.0549 100.02 78.953 98.5824 80.4585C97.0944 82.0187 93.7473 81.7114 93.7473 81.7114V81.7319C94.1685 82.5132 94.6402 83.2755 95.1603 84.0158C95.4354 84.4049 95.7064 84.7634 95.994 85.098V85.1219C96.7321 86.1054 97.7289 86.9416 98.9117 87.5696C98.3918 90.0679 96.8989 92.3613 94.656 94.1071V94.1071C95.4105 94.4296 96.1887 94.7135 96.986 94.9572C98.5407 95.4385 100.629 95.9165 102.492 95.7833C104.651 95.5943 106.646 94.7518 108.086 93.4209L107.131 90.4202L106.273 87.7164C114.034 86.0948 111.9 79.0418 110.491 75.8328ZM105.839 87.8154L105.977 87.7881L106.198 87.7369C105.876 87.8508 105.537 87.9267 105.189 87.9622C105.368 87.9246 105.552 87.8837 105.743 87.8359L105.839 87.8154Z" fill="url(#paint5_linear_1_648)"/>
<path d="M115.163 74.1736C111.962 76.5838 110.578 75.9044 110.491 75.8396V75.8327C110.128 75.0202 109.816 74.4672 109.728 74.3033L109.707 74.2624C109.707 74.2624 109.382 74.911 106.965 74.754C104.547 74.5969 103.751 73.6137 103.751 73.6137C103.751 73.6137 104.51 75.744 101.629 76.6555C98.8533 77.5363 97.7613 76.9661 97.6904 76.9252C97.8363 77.0515 100.004 78.9496 98.5657 80.4551C97.0777 82.0152 93.7306 81.7114 93.7306 81.7114V81.7285C94.1517 82.5109 94.6234 83.2744 95.1436 84.0157C95.4215 84.4026 95.6994 84.7634 95.9773 85.0979V85.1218C95.9773 85.1218 94.8352 86.9619 92.797 86.9243C90.7587 86.8868 90.7129 85.2174 90.7129 85.2174C90.7129 85.2174 89.2707 87.3477 84.8149 85.2959C80.3591 83.2442 83.331 80.2707 83.331 80.2707C83.331 80.2707 80.1715 78.2907 80.1715 75.3241C80.1715 72.3574 85.09 70.1009 85.09 70.1009C85.09 70.1009 83.331 66.6563 86.2987 64.7582C89.2665 62.8601 93.7265 64.1471 93.7265 64.1471C93.7265 64.1471 93.6389 59.7398 98.1823 59.8115C102.726 59.8832 103.755 62.1603 103.755 62.1603C103.755 62.1603 107.84 59.5726 111.883 62.0101C115.926 64.4475 114.263 68.6978 114.263 68.6978C114.263 68.6978 118.502 71.6644 115.163 74.1736Z" fill="url(#paint6_linear_1_648)"/>
<path opacity="0.15" d="M107.165 90.4098C105.227 89.908 101.779 87.9928 101.779 87.9928C103.14 88.1106 104.514 88.0507 105.852 87.8153L105.989 87.788L106.256 87.7231H106.294L107.165 90.4098Z" fill="black"/>
<path opacity="0.15" d="M91.5882 109.534L89.7083 119.776L88.2328 127.676L84.7982 130.014L92.2718 127.792C92.2718 127.792 90.3336 123.258 91.5882 109.534Z" fill="black"/>
<path opacity="0.15" d="M89.3458 137.511C90.2336 137.671 91.1256 137.811 92.0301 137.934C92.0759 137.234 92.1593 136.528 92.276 135.821L89.3458 137.511Z" fill="black"/>
<g filter="url(#filter0_d_1_648)">
<path d="M71.2808 10H48.9935C45.918 10 43.4248 12.042 43.4248 14.5609V32.8148C43.4248 35.3337 45.918 37.3757 48.9935 37.3757H71.2808C74.3564 37.3757 76.8495 35.3337 76.8495 32.8148V14.5609C76.8495 12.042 74.3564 10 71.2808 10Z" fill="#56CCF2"/>
</g>
<g clip-path="url(#clip0_1_648)">
<path d="M68.5 22.7309H65.1119L67.7444 20.5599L66.5987 19.6085L62.8125 22.7309H61.1875V21.3908L64.9737 18.2684L63.82 17.3236L61.1875 19.4946V16.7004H59.5625V19.4946L56.93 17.3236L55.7763 18.2684L59.5625 21.3908V22.7309H57.9375L54.1513 19.6085L53.0056 20.5599L55.6381 22.7309H52.25V24.071H55.6381L53.0056 26.242L54.1513 27.1934L57.9375 24.071H59.5625V25.4111L55.7763 28.5335L56.93 29.4783L59.5625 27.3073V30.1015H61.1875V27.3073L63.82 29.4783L64.9737 28.5335L61.1875 25.4111V24.071H62.8125L66.5987 27.1934L67.7444 26.242L65.1119 24.071H68.5V22.7309Z" fill="white"/>
</g>
<g filter="url(#filter1_d_1_648)">
<path d="M186.544 79.0153H164.256C161.181 79.0153 158.688 81.0572 158.688 83.5762V101.83C158.688 104.349 161.181 106.391 164.256 106.391H186.544C189.619 106.391 192.112 104.349 192.112 101.83V83.5762C192.112 81.0572 189.619 79.0153 186.544 79.0153Z" fill="#F2C94C"/>
</g>
<path d="M183.062 90.4061C183.062 87.0558 179.812 84.3756 175.75 84.3756C171.687 84.3756 168.438 87.0558 168.438 90.4061C168.438 92.4832 169.737 94.3594 171.687 95.4314V97.1066C171.687 97.9776 172.337 98.7147 173.312 98.9827V99.1167C173.312 100.256 174.369 101.127 175.75 101.127C177.131 101.127 178.187 100.256 178.187 99.1167V98.9827C179.162 98.7147 179.812 97.9776 179.812 97.1066V95.4314C181.762 94.3594 183.062 92.4832 183.062 90.4061ZM170.062 90.4061C170.062 87.7929 172.581 85.7157 175.75 85.7157C178.919 85.7157 181.437 87.7929 181.437 90.4061C181.437 92.7512 179.325 94.6944 176.562 95.0294V93.3543L177.944 92.2152C178.269 91.9472 178.269 91.5452 177.944 91.2771C177.619 91.0091 177.131 91.0091 176.806 91.2771L175.75 92.1482L174.694 91.2771C174.369 91.0091 173.881 91.0091 173.556 91.2771C173.231 91.5452 173.231 91.9472 173.556 92.2152L174.937 93.3543V95.0294C172.175 94.6944 170.062 92.7512 170.062 90.4061ZM175.75 99.7868C175.262 99.7868 174.937 99.5188 174.937 99.1167H176.562C176.562 99.5188 176.237 99.7868 175.75 99.7868ZM178.187 97.1066C178.187 97.5086 177.862 97.7766 177.375 97.7766H174.125C173.637 97.7766 173.312 97.5086 173.312 97.1066V96.1015C174.044 96.3025 174.856 96.4365 175.75 96.4365C176.644 96.4365 177.456 96.3025 178.187 96.1015V97.1066Z" fill="white"/>
<g filter="url(#filter2_d_1_648)">
<path d="M37.856 79.0153H15.5687C12.4932 79.0153 10 81.0572 10 83.5762V101.83C10 104.349 12.4932 106.391 15.5687 106.391H37.856C40.9315 106.391 43.4247 104.349 43.4247 101.83V83.5762C43.4247 81.0572 40.9315 79.0153 37.856 79.0153Z" fill="#F58A8A"/>
</g>
<g clip-path="url(#clip1_1_648)">
<path d="M31.9375 90.4061H31.125V89.066C31.125 87.2166 29.305 85.7157 27.0625 85.7157C24.82 85.7157 23 87.2166 23 89.066V90.4061H22.1875C21.2937 90.4061 20.5625 91.0091 20.5625 91.7462V98.4467C20.5625 99.1837 21.2937 99.7868 22.1875 99.7868H31.9375C32.8312 99.7868 33.5625 99.1837 33.5625 98.4467V91.7462C33.5625 91.0091 32.8312 90.4061 31.9375 90.4061ZM27.0625 96.4365C26.1687 96.4365 25.4375 95.8335 25.4375 95.0964C25.4375 94.3594 26.1687 93.7563 27.0625 93.7563C27.9562 93.7563 28.6875 94.3594 28.6875 95.0964C28.6875 95.8335 27.9562 96.4365 27.0625 96.4365ZM29.5812 90.4061H24.5437V89.066C24.5437 87.9202 25.6731 86.9888 27.0625 86.9888C28.4519 86.9888 29.5812 87.9202 29.5812 89.066V90.4061Z" fill="white"/>
</g>
<g filter="url(#filter3_d_1_648)">
<path d="M149.981 10H127.694C124.618 10 122.125 12.042 122.125 14.5609V32.8148C122.125 35.3337 124.618 37.3757 127.694 37.3757H149.981C153.057 37.3757 155.55 35.3337 155.55 32.8148V14.5609C155.55 12.042 153.057 10 149.981 10Z" fill="#6FCF97"/>
</g>
<path d="M143.503 19.9813H130.234V26.8204H143.503V19.9813Z" fill="white"/>
<path d="M147.079 21.3423L144.15 22.3575V24.4732L147.079 25.4884H148.141V21.3423H147.079Z" fill="white"/>
<defs>
<filter id="filter0_d_1_648" x="33.4248" y="0" width="63.4247" height="57.3757" filterUnits="userSpaceOnUse" color-interpolation-filters="sRGB">
<feFlood flood-opacity="0" result="BackgroundImageFix"/>
<feColorMatrix in="SourceAlpha" type="matrix" values="0 0 0 0 0 0 0 0 0 0 0 0 0 0 0 0 0 0 127 0" result="hardAlpha"/>
<feOffset dx="5" dy="5"/>
<feGaussianBlur stdDeviation="7.5"/>
<feColorMatrix type="matrix" values="0 0 0 0 0 0 0 0 0 0 0 0 0 0 0 0 0 0 0.15 0"/>
<feBlend mode="normal" in2="BackgroundImageFix" result="effect1_dropShadow_1_648"/>
<feBlend mode="normal" in="SourceGraphic" in2="effect1_dropShadow_1_648" result="shape"/>
</filter>
<filter id="filter1_d_1_648" x="148.688" y="69.0153" width="63.4247" height="57.3757" filterUnits="userSpaceOnUse" color-interpolation-filters="sRGB">
<feFlood flood-opacity="0" result="BackgroundImageFix"/>
<feColorMatrix in="SourceAlpha" type="matrix" values="0 0 0 0 0 0 0 0 0 0 0 0 0 0 0 0 0 0 127 0" result="hardAlpha"/>
<feOffset dx="5" dy="5"/>
<feGaussianBlur stdDeviation="7.5"/>
<feColorMatrix type="matrix" values="0 0 0 0 0 0 0 0 0 0 0 0 0 0 0 0 0 0 0.15 0"/>
<feBlend mode="normal" in2="BackgroundImageFix" result="effect1_dropShadow_1_648"/>
<feBlend mode="normal" in="SourceGraphic" in2="effect1_dropShadow_1_648" result="shape"/>
</filter>
<filter id="filter2_d_1_648" x="0" y="69.0153" width="63.4247" height="57.3756" filterUnits="userSpaceOnUse" color-interpolation-filters="sRGB">
<feFlood flood-opacity="0" result="BackgroundImageFix"/>
<feColorMatrix in="SourceAlpha" type="matrix" values="0 0 0 0 0 0 0 0 0 0 0 0 0 0 0 0 0 0 127 0" result="hardAlpha"/>
<feOffset dx="5" dy="5"/>
<feGaussianBlur stdDeviation="7.5"/>
<feColorMatrix type="matrix" values="0 0 0 0 0 0 0 0 0 0 0 0 0 0 0 0 0 0 0.15 0"/>
<feBlend mode="normal" in2="BackgroundImageFix" result="effect1_dropShadow_1_648"/>
<feBlend mode="normal" in="SourceGraphic" in2="effect1_dropShadow_1_648" result="shape"/>
</filter>
<filter id="filter3_d_1_648" x="112.125" y="0" width="63.4247" height="57.3757" filterUnits="userSpaceOnUse" color-interpolation-filters="sRGB">
<feFlood flood-opacity="0" result="BackgroundImageFix"/>
<feColorMatrix in="SourceAlpha" type="matrix" values="0 0 0 0 0 0 0 0 0 0 0 0 0 0 0 0 0 0 127 0" result="hardAlpha"/>
<feOffset dx="5" dy="5"/>
<feGaussianBlur stdDeviation="7.5"/>
<feColorMatrix type="matrix" values="0 0 0 0 0 0 0 0 0 0 0 0 0 0 0 0 0 0 0.15 0"/>
<feBlend mode="normal" in2="BackgroundImageFix" result="effect1_dropShadow_1_648"/>
<feBlend mode="normal" in="SourceGraphic" in2="effect1_dropShadow_1_648" result="shape"/>
</filter>
<linearGradient id="paint0_linear_1_648" x1="101.222" y1="54.803" x2="99.9817" y2="142.059" gradientUnits="userSpaceOnUse">
<stop stop-color="white" stop-opacity="0"/>
<stop offset="1" stop-color="#64B5F6" stop-opacity="0.6"/>
</linearGradient>
<linearGradient id="paint1_linear_1_648" x1="111.083" y1="94.5372" x2="121.954" y2="117.861" gradientUnits="userSpaceOnUse">
<stop stop-color="#E57373"/>
<stop offset="1" stop-color="#AD1457"/>
</linearGradient>
<linearGradient id="paint2_linear_1_648" x1="22866.6" y1="26667.6" x2="21796.7" y2="33114.3" gradientUnits="userSpaceOnUse">
<stop stop-color="#E57373"/>
<stop offset="1" stop-color="#AD1457"/>
</linearGradient>
<linearGradient id="paint3_linear_1_648" x1="166.099" y1="102.427" x2="130.147" y2="127.857" gradientUnits="userSpaceOnUse">
<stop stop-color="#FFF8E1"/>
<stop offset="1" stop-color="#FFCC80"/>
</linearGradient>
<linearGradient id="paint4_linear_1_648" x1="17594.5" y1="14958.6" x2="15704.9" y2="13403" gradientUnits="userSpaceOnUse">
<stop stop-color="#FFF8E1"/>
<stop offset="1" stop-color="#FFCC80"/>
</linearGradient>
<linearGradient id="paint5_linear_1_648" x1="114.572" y1="79.3093" x2="94.0186" y2="89.6437" gradientUnits="userSpaceOnUse">
<stop stop-color="#FFF8E1"/>
<stop offset="1" stop-color="#FFCC80"/>
</linearGradient>
<linearGradient id="paint6_linear_1_648" x1="109.52" y1="59.6818" x2="89.9554" y2="91.9579" gradientUnits="userSpaceOnUse">
<stop stop-color="#FFB74D"/>
<stop offset="1" stop-color="#F4511E"/>
</linearGradient>
<clipPath id="clip0_1_648">
<rect width="19.5" height="16.0812" fill="white" transform="translate(50.625 15.3604)"/>
</clipPath>
<clipPath id="clip1_1_648">
<rect width="19.5" height="16.0812" fill="white" transform="translate(17.3125 85.0457)"/>
</clipPath>
</defs>
</svg>
