<svg width="197" height="133" viewBox="0 0 197 133" fill="none" xmlns="http://www.w3.org/2000/svg">
<path d="M197 67.0001C196.992 79.1293 193.085 91.0227 185.707 101.377C178.329 111.731 167.764 120.146 155.171 125.701C154.604 125.955 154.034 126.2 153.459 126.434L153.34 126.485L152.93 126.653C152.591 126.795 152.258 126.927 151.913 127.06C149.761 127.905 147.554 128.663 145.29 129.335C144.006 129.719 142.708 130.073 141.396 130.399L139.827 130.771C122.364 134.753 103.825 133.371 87.4278 126.866C86.7561 126.597 86.0843 126.322 85.4244 126.037L84.2354 125.528C72.467 120.247 62.4841 112.462 55.2476 102.922C54.4866 101.928 53.7614 100.91 53.0717 99.8678C52.4574 98.9617 51.8629 98.0438 51.2882 97.114C45.7029 87.7972 42.7984 77.4726 42.8166 67.0001C42.8166 65.7649 42.8562 64.5365 42.9355 63.3148C44.0501 46.1526 52.9404 30.0398 67.7156 18.4033C82.4908 6.76682 101.985 0.524824 122.052 1.0049C142.12 1.48498 161.176 8.64925 175.17 20.974C189.163 33.2987 196.989 49.8114 196.982 67.0001H197Z" fill="url(#paint0_linear_1_730)"/>
<path d="M104.769 64.6534C104.769 64.6534 87.5289 57.6543 86.0308 48.0236C84.5326 38.3929 85.5849 29.1897 94.1754 26.6141C94.1754 26.6141 99.6091 11.7811 118.871 17.7418C138.133 23.7024 135.095 41.5997 145.623 43.7427C156.152 45.8857 175.812 36.8607 179.563 47.8709C183.315 58.8811 170.979 58.2091 162.781 67.5548C154.582 76.9005 167.245 81.8075 164.927 88.2415C162.608 94.6756 153.851 99.099 153.851 99.099L104.769 64.6534Z" fill="url(#paint1_linear_1_730)"/>
<path d="M81.1619 85.7779L86.0308 97.1138H86.5599L94.1754 67.5548C89.3659 71.1638 81.1619 85.7779 81.1619 85.7779Z" fill="url(#paint2_linear_1_730)"/>
<path d="M72.6129 101.415L69.5275 102.744C65.6989 104.708 59.9798 104.149 59.9798 104.149C63.0712 107.126 80.4781 110.496 85.3709 110.41L86.2745 99.8625H75.4308L72.6129 101.415Z" fill="url(#paint3_linear_1_730)"/>
<path d="M153.459 126.418L153.34 126.469L152.93 126.637C152.591 126.78 152.258 126.912 151.913 127.044C149.761 127.889 147.554 128.648 145.29 129.32C144.006 129.703 142.708 130.058 141.396 130.384L139.827 130.755C122.364 134.737 103.825 133.356 87.4279 126.851C86.7561 126.581 86.0843 126.306 85.4244 126.021L84.2354 125.512C84.4019 121.145 84.6575 115.917 85.032 110.404C85.2698 106.958 85.5611 103.4 85.906 99.8676C85.9951 98.9463 86.0902 98.0301 86.1854 97.1138C87.5884 84.093 89.8356 72.0189 93.4383 68.1809L93.4918 68.13C93.9492 67.591 94.5944 67.19 95.3347 66.9847C100.537 65.9259 104.205 65.5696 104.781 64.6534C105.358 63.7371 104.781 61.9352 104.781 61.9352L105.816 61.813C107.32 61.6196 110.239 61.2124 113.003 60.6015C113.021 60.6062 113.039 60.6062 113.057 60.6015C115.5 60.0569 117.813 59.3544 118.942 58.5095L121.261 63.788C121.261 63.788 138.697 61.8996 145.504 67.5752C145.546 67.6016 145.584 67.6324 145.617 67.6668C145.689 67.7223 145.757 67.7819 145.82 67.845C146.224 68.2116 146.585 68.6124 146.896 69.0412C149.113 72.0953 150.683 84.3526 151.771 97.6483C152.02 100.702 152.246 103.858 152.442 106.948C152.894 114.085 153.233 120.997 153.459 126.418Z" fill="url(#paint4_linear_1_730)"/>
<path opacity="0.15" d="M153.34 126.485L152.93 126.652C152.591 126.795 152.258 126.927 151.913 127.06C149.761 127.905 147.553 128.663 145.29 129.335C144.006 129.719 142.708 130.073 141.396 130.399C133.365 123.074 130.178 113.565 130.178 113.565L152.43 106.948L153.34 126.485Z" fill="black"/>
<path d="M145.498 67.5548C153.554 74.3248 155.308 88.5368 153.821 99.1143C152.335 109.692 149.577 119.597 143.846 119.292C138.115 118.987 118.282 107.208 110.619 100.784L115.096 93.4285L131.29 99.2059V83.8079L145.498 67.5548Z" fill="url(#paint5_linear_1_730)"/>
<path d="M145.498 67.5548C153.554 74.3248 155.308 88.5368 153.821 99.1143C152.335 109.692 149.577 119.597 143.846 119.292C138.115 118.987 118.282 107.208 110.619 100.784L115.096 93.4285L131.29 99.2059V83.8079L145.498 67.5548Z" fill="url(#paint6_linear_1_730)"/>
<g filter="url(#filter0_d_1_730)">
<path d="M103.836 97.1139H29.5295V99.8677H103.836V97.1139Z" fill="url(#paint7_linear_1_730)"/>
<path d="M71.5072 63.3147H15L29.5296 97.1139H86.0308L71.5072 63.3147Z" fill="url(#paint8_linear_1_730)"/>
</g>
<path d="M46.4966 99.8677C46.4966 99.8677 56.2464 104.047 62.441 104.149C68.6357 104.25 75.4368 99.8677 75.4368 99.8677H46.4966Z" fill="url(#paint9_linear_1_730)"/>
<path d="M115.096 93.4285C115.096 93.4285 106.523 89.7228 102.831 89.3156C99.1395 88.9084 87.6776 97.1138 87.6776 97.1138H103.848L110.637 100.784L115.096 93.4285Z" fill="url(#paint10_linear_1_730)"/>
<path d="M118.217 50.1615C118.26 52.9488 118.498 55.7314 118.93 58.4942C115.096 60.342 110.607 61.3346 105.804 61.8182L105.524 58.4942L105.358 56.4581V56.392C104.432 56.3741 103.519 56.2012 102.671 55.8829C96.8686 53.7399 95.6201 43.2642 95.6201 43.2642C97.9446 43.1828 100.971 39.5942 100.971 39.5942C102.665 41.8135 110.524 46.0995 115.084 44.9491C119.644 43.7987 119.287 41.0449 119.287 41.0449C120.112 41.3427 120.825 41.8286 121.349 42.4498C121.874 43.071 122.188 43.8034 122.26 44.5673C122.503 47.255 118.217 50.1615 118.217 50.1615Z" fill="url(#paint11_linear_1_730)"/>
<path opacity="0.15" d="M114.323 53.1189C113.247 54.6765 108.378 57.1555 105.53 58.5044L105.364 56.4683C105.542 56.4683 105.715 56.4174 105.881 56.3868C108.206 56.0345 110.437 55.3258 112.468 54.2947C112.492 54.2866 112.515 54.2745 112.534 54.2591C113.144 53.9502 113.716 53.5886 114.24 53.18L114.323 53.1189Z" fill="black"/>
<path opacity="0.15" d="M124.608 96.8288L137.223 101.247L131.278 97.577V83.8334C131.278 83.8334 129.417 95.7751 124.608 96.8288Z" fill="black"/>
<defs>
<filter id="filter0_d_1_730" x="0" y="48.3147" width="128.836" height="76.553" filterUnits="userSpaceOnUse" color-interpolation-filters="sRGB">
<feFlood flood-opacity="0" result="BackgroundImageFix"/>
<feColorMatrix in="SourceAlpha" type="matrix" values="0 0 0 0 0 0 0 0 0 0 0 0 0 0 0 0 0 0 127 0" result="hardAlpha"/>
<feOffset dx="5" dy="5"/>
<feGaussianBlur stdDeviation="10"/>
<feColorMatrix type="matrix" values="0 0 0 0 0 0 0 0 0 0 0 0 0 0 0 0 0 0 0.2 0"/>
<feBlend mode="normal" in2="BackgroundImageFix" result="effect1_dropShadow_1_730"/>
<feBlend mode="normal" in="SourceGraphic" in2="effect1_dropShadow_1_730" result="shape"/>
</filter>
<linearGradient id="paint0_linear_1_730" x1="120.225" y1="8.14792" x2="118.291" y2="138.275" gradientUnits="userSpaceOnUse">
<stop stop-color="white" stop-opacity="0"/>
<stop offset="1" stop-color="#64B5F6" stop-opacity="0.6"/>
</linearGradient>
<linearGradient id="paint1_linear_1_730" x1="85.466" y1="57.7103" x2="180.265" y2="57.7103" gradientUnits="userSpaceOnUse">
<stop stop-color="#EF9A9A"/>
<stop offset="1" stop-color="#D81B60"/>
</linearGradient>
<linearGradient id="paint2_linear_1_730" x1="86.9642" y1="83.5076" x2="84.8635" y2="111.403" gradientUnits="userSpaceOnUse">
<stop stop-color="#7E57C2"/>
<stop offset="1" stop-color="#4527A0"/>
</linearGradient>
<linearGradient id="paint3_linear_1_730" x1="7946.02" y1="2546.72" x2="7925.54" y2="3127.36" gradientUnits="userSpaceOnUse">
<stop stop-color="#7E57C2"/>
<stop offset="1" stop-color="#4527A0"/>
</linearGradient>
<linearGradient id="paint4_linear_1_730" x1="23728.9" y1="14971.5" x2="27539.9" y2="23133.5" gradientUnits="userSpaceOnUse">
<stop stop-color="#7E57C2"/>
<stop offset="1" stop-color="#4527A0"/>
</linearGradient>
<linearGradient id="paint5_linear_1_730" x1="16284.6" y1="9845.11" x2="19700.5" y2="16489.2" gradientUnits="userSpaceOnUse">
<stop stop-color="#7E57C2"/>
<stop offset="1" stop-color="#4527A0"/>
</linearGradient>
<linearGradient id="paint6_linear_1_730" x1="136.052" y1="73.2966" x2="131.055" y2="120.895" gradientUnits="userSpaceOnUse">
<stop offset="0.14" stop-color="#7E57C2" stop-opacity="0"/>
<stop offset="0.26" stop-color="#724DBB" stop-opacity="0.21"/>
<stop offset="0.48" stop-color="#5F3DAF" stop-opacity="0.55"/>
<stop offset="0.66" stop-color="#5131A7" stop-opacity="0.79"/>
<stop offset="0.81" stop-color="#482AA2" stop-opacity="0.94"/>
<stop offset="0.91" stop-color="#4527A0"/>
</linearGradient>
<linearGradient id="paint7_linear_1_730" x1="29.5295" y1="98.4883" x2="103.836" y2="98.4883" gradientUnits="userSpaceOnUse">
<stop stop-color="#D2D4D5"/>
<stop offset="1" stop-color="#AAACAE"/>
</linearGradient>
<linearGradient id="paint8_linear_1_730" x1="625.154" y1="4230.75" x2="4148.24" y2="8908.96" gradientUnits="userSpaceOnUse">
<stop stop-color="#D2D4D5"/>
<stop offset="1" stop-color="#AAACAE"/>
</linearGradient>
<linearGradient id="paint9_linear_1_730" x1="48.3395" y1="95.2712" x2="70.825" y2="106.529" gradientUnits="userSpaceOnUse">
<stop stop-color="#FFF8E1"/>
<stop offset="1" stop-color="#FFCC80"/>
</linearGradient>
<linearGradient id="paint10_linear_1_730" x1="9185.07" y1="2964.18" x2="9694.88" y2="3611.42" gradientUnits="userSpaceOnUse">
<stop stop-color="#FFF8E1"/>
<stop offset="1" stop-color="#FFCC80"/>
</linearGradient>
<linearGradient id="paint11_linear_1_730" x1="9382.71" y1="3251.85" x2="9801.86" y2="4170.8" gradientUnits="userSpaceOnUse">
<stop stop-color="#FFF8E1"/>
<stop offset="1" stop-color="#FFCC80"/>
</linearGradient>
</defs>
</svg>
